<?xml version="1.0" encoding="UTF-8" standalone="no"?>
<!-- Created with Inkscape (http://www.inkscape.org/) -->

<svg
   xmlns:dc="http://purl.org/dc/elements/1.1/"
   xmlns:cc="http://creativecommons.org/ns#"
   xmlns:rdf="http://www.w3.org/1999/02/22-rdf-syntax-ns#"
   xmlns:svg="http://www.w3.org/2000/svg"
   xmlns="http://www.w3.org/2000/svg"
   xmlns:sodipodi="http://sodipodi.sourceforge.net/DTD/sodipodi-0.dtd"
   xmlns:inkscape="http://www.inkscape.org/namespaces/inkscape"
   width="277.24576mm"
   height="100mm"
   viewBox="0 0 277.24576 100"
   version="1.1"
   id="svg8"
   inkscape:version="0.92.2 (5c3e80d, 2017-08-06)"
   sodipodi:docname="logo.svg">
  <defs
     id="defs2">
    <clipPath
       clipPathUnits="userSpaceOnUse"
       id="clipPath859">
      <g
         id="g863"
         style="font-style:normal;font-variant:normal;font-weight:normal;font-stretch:normal;font-size:40px;line-height:1.25;font-family:'Uni Sans';-inkscape-font-specification:'Uni Sans';letter-spacing:0px;word-spacing:0px;fill:#aaeeff;fill-opacity:1;stroke:none"
         transform="matrix(3.4559706,0,0,3.4559706,-328.02237,-1139.3286)"
         aria-label="S">
        <path
           id="path861"
           style="font-style:normal;font-variant:normal;font-weight:900;font-stretch:normal;font-family:'Uni Sans';-inkscape-font-specification:'Uni Sans Heavy';fill:#aaeeff;stroke:none"
           d="m 95.596797,371.62156 c 2.64,3.4 6.240003,5.12 9.640003,5.12 5.2,0 10.96,-3 11.2,-8.48 0.32,-6.96 -4.72,-8.72 -9.76,-9.64 -2.2,-0.48 -3.68,-1.28 -3.76,-2.64 0.12,-3.28 5.2,-3.4 8.16,-0.24 l 4.68,-3.6 c -2.92,-3.56 -6.24,-4.52 -9.68,-4.52 -5.2,0 -10.240003,2.92 -10.240003,8.48 0,5.4 4.16,8.28 8.720003,9 2.32,0.32 4.92,1.24 4.84,2.84 -0.2,3.04 -6.44,2.88 -9.28,-0.56 z"
           inkscape:connector-curvature="0" />
      </g>
    </clipPath>
    <clipPath
       clipPathUnits="userSpaceOnUse"
       id="clipPath865">
      <g
         id="g869"
         style="font-style:normal;font-variant:normal;font-weight:normal;font-stretch:normal;font-size:40px;line-height:1.25;font-family:'Uni Sans';-inkscape-font-specification:'Uni Sans';letter-spacing:0px;word-spacing:0px;fill:#aaeeff;fill-opacity:1;stroke:none"
         transform="matrix(3.4559706,0,0,3.4559706,-328.02237,-1139.3286)"
         aria-label="S">
        <path
           id="path867"
           style="font-style:normal;font-variant:normal;font-weight:900;font-stretch:normal;font-family:'Uni Sans';-inkscape-font-specification:'Uni Sans Heavy';fill:#aaeeff;stroke:none"
           d="m 95.596797,371.62156 c 2.64,3.4 6.240003,5.12 9.640003,5.12 5.2,0 10.96,-3 11.2,-8.48 0.32,-6.96 -4.72,-8.72 -9.76,-9.64 -2.2,-0.48 -3.68,-1.28 -3.76,-2.64 0.12,-3.28 5.2,-3.4 8.16,-0.24 l 4.68,-3.6 c -2.92,-3.56 -6.24,-4.52 -9.68,-4.52 -5.2,0 -10.240003,2.92 -10.240003,8.48 0,5.4 4.16,8.28 8.720003,9 2.32,0.32 4.92,1.24 4.84,2.84 -0.2,3.04 -6.44,2.88 -9.28,-0.56 z"
           inkscape:connector-curvature="0" />
      </g>
    </clipPath>
    <clipPath
       clipPathUnits="userSpaceOnUse"
       id="clipPath871">
      <g
         id="g875"
         style="font-style:normal;font-variant:normal;font-weight:normal;font-stretch:normal;font-size:40px;line-height:1.25;font-family:'Uni Sans';-inkscape-font-specification:'Uni Sans';letter-spacing:0px;word-spacing:0px;fill:#aaeeff;fill-opacity:1;stroke:none"
         transform="matrix(3.4559706,0,0,3.4559706,-328.02237,-1139.3286)"
         aria-label="S">
        <path
           id="path873"
           style="font-style:normal;font-variant:normal;font-weight:900;font-stretch:normal;font-family:'Uni Sans';-inkscape-font-specification:'Uni Sans Heavy';fill:#aaeeff;stroke:none"
           d="m 95.596797,371.62156 c 2.64,3.4 6.240003,5.12 9.640003,5.12 5.2,0 10.96,-3 11.2,-8.48 0.32,-6.96 -4.72,-8.72 -9.76,-9.64 -2.2,-0.48 -3.68,-1.28 -3.76,-2.64 0.12,-3.28 5.2,-3.4 8.16,-0.24 l 4.68,-3.6 c -2.92,-3.56 -6.24,-4.52 -9.68,-4.52 -5.2,0 -10.240003,2.92 -10.240003,8.48 0,5.4 4.16,8.28 8.720003,9 2.32,0.32 4.92,1.24 4.84,2.84 -0.2,3.04 -6.44,2.88 -9.28,-0.56 z"
           inkscape:connector-curvature="0" />
      </g>
    </clipPath>
    <clipPath
       clipPathUnits="userSpaceOnUse"
       id="clipPath877">
      <g
         id="g881"
         style="font-style:normal;font-variant:normal;font-weight:normal;font-stretch:normal;font-size:40px;line-height:1.25;font-family:'Uni Sans';-inkscape-font-specification:'Uni Sans';letter-spacing:0px;word-spacing:0px;fill:#aaeeff;fill-opacity:1;stroke:none"
         transform="translate(-9.6451438e-7,3.2552362e-6)"
         aria-label="S">
        <path
           id="path879"
           style="font-style:normal;font-variant:normal;font-weight:900;font-stretch:normal;font-family:'Uni Sans';-inkscape-font-specification:'Uni Sans Heavy';fill:#aaeeff;stroke:none"
           d="m 95.596797,371.62156 c 2.64,3.4 6.240003,5.12 9.640003,5.12 5.2,0 10.96,-3 11.2,-8.48 0.32,-6.96 -4.72,-8.72 -9.76,-9.64 -2.2,-0.48 -3.68,-1.28 -3.76,-2.64 0.12,-3.28 5.2,-3.4 8.16,-0.24 l 4.68,-3.6 c -2.92,-3.56 -6.24,-4.52 -9.68,-4.52 -5.2,0 -10.240003,2.92 -10.240003,8.48 0,5.4 4.16,8.28 8.720003,9 2.32,0.32 4.92,1.24 4.84,2.84 -0.2,3.04 -6.44,2.88 -9.28,-0.56 z"
           inkscape:connector-curvature="0" />
      </g>
    </clipPath>
  </defs>
  <sodipodi:namedview
     id="base"
     pagecolor="#ffffff"
     bordercolor="#666666"
     borderopacity="1.0"
     inkscape:pageopacity="0.0"
     inkscape:pageshadow="2"
     inkscape:zoom="0.46842531"
     inkscape:cx="536.12103"
     inkscape:cy="245.61199"
     inkscape:document-units="mm"
     inkscape:current-layer="layer1"
     showgrid="false"
     inkscape:measure-start="223.021,768.641"
     inkscape:measure-end="282.061,824.023"
     fit-margin-top="0"
     fit-margin-left="0"
     fit-margin-right="0"
     fit-margin-bottom="0"
     inkscape:window-width="1366"
     inkscape:window-height="705"
     inkscape:window-x="-8"
     inkscape:window-y="-8"
     inkscape:window-maximized="1" />
  <metadata
     id="metadata5">
    <rdf:RDF>
      <cc:Work
         rdf:about="">
        <dc:format>image/svg+xml</dc:format>
        <dc:type
           rdf:resource="http://purl.org/dc/dcmitype/StillImage" />
        <dc:title></dc:title>
      </cc:Work>
    </rdf:RDF>
  </metadata>
  <g
     inkscape:label="Layer 1"
     inkscape:groupmode="layer"
     id="layer1"
     transform="translate(19.264554,-85.770525)">
    <g
       id="g974">
      <g
         transform="matrix(0.6776018,0,0,0.6776018,-6.210858,59.892083)"
         id="g925">
        <circle
           style="opacity:0.99823531;fill:#ffffff;fill-opacity:1;stroke:none;stroke-width:0.46065417;stroke-miterlimit:4;stroke-dasharray:none;stroke-opacity:1"
           id="path913"
           cx="54.525097"
           cy="111.98087"
           r="73.78965" />
        <g
           id="g911"
           transform="translate(16.010963)">
          <g
             id="g901">
            <g
               id="g891"
               transform="rotate(180,38.493027,111.98087)">
              <g
                 clip-path="url(#clipPath877)"
                 id="flowRoot10"
                 style="font-style:normal;font-variant:normal;font-weight:normal;font-stretch:normal;font-size:40px;line-height:1.25;font-family:'Uni Sans';-inkscape-font-specification:'Uni Sans';letter-spacing:0px;word-spacing:0px;fill:#0000ff;fill-opacity:1;stroke:none"
                 transform="matrix(3.4559705,0,0,3.4559705,-328.02237,-1139.3286)"
                 aria-label="S">
                <path
                   id="path20"
                   style="font-style:normal;font-variant:normal;font-weight:900;font-stretch:normal;font-family:'Uni Sans';-inkscape-font-specification:'Uni Sans Heavy';fill:#0000ff;stroke:none"
                   d="m 95.596797,371.62156 c 2.64,3.4 6.240003,5.12 9.640003,5.12 5.2,0 10.96,-3 11.2,-8.48 0.32,-6.96 -4.72,-8.72 -9.76,-9.64 -2.2,-0.48 -3.68,-1.28 -3.76,-2.64 0.12,-3.28 5.2,-3.4 8.16,-0.24 l 4.68,-3.6 c -2.92,-3.56 -6.24,-4.52 -9.68,-4.52 -5.2,0 -10.240003,2.92 -10.240003,8.48 0,5.4 4.16,8.28 8.720003,9 2.32,0.32 4.92,1.24 4.84,2.84 -0.2,3.04 -6.44,2.88 -9.28,-0.56 z"
                   inkscape:connector-curvature="0" />
              </g>
              <path
                 clip-path="url(#clipPath859)"
                 sodipodi:nodetypes="cscc"
                 inkscape:connector-curvature="0"
                 id="path853"
                 d="m 72.926561,142.4594 c 0,0 -33.572401,58.30414 -74.2168269,6.70192 C -41.93469,97.559094 18.507504,130.33123 18.507504,130.33123 c 0,0 25.181644,27.09493 54.419057,12.12817"
                 style="fill:#000098;fill-opacity:1;stroke:none;stroke-width:0.26458332px;stroke-linecap:butt;stroke-linejoin:miter;stroke-opacity:1" />
              <path
                 transform="rotate(-180,38.493027,111.98087)"
                 style="fill:#0000b2;fill-opacity:1;stroke:none;stroke-width:0.26458332px;stroke-linecap:butt;stroke-linejoin:miter;stroke-opacity:1"
                 d="m 72.926561,142.4594 c 0,0 -33.572401,58.30414 -74.2168269,6.70192 C -41.93469,97.559094 18.507504,130.33123 18.507504,130.33123 c 0,0 25.181644,27.09493 54.419057,12.12817"
                 id="path883"
                 inkscape:connector-curvature="0"
                 sodipodi:nodetypes="cscc"
                 clip-path="url(#clipPath859)" />
            </g>
            <circle
               style="opacity:0.99823531;fill:#0000b2;fill-opacity:1;stroke:none;stroke-width:0.42082727;stroke-miterlimit:4;stroke-dasharray:none;stroke-opacity:1"
               id="path885"
               cx="138.32022"
               cy="-10.73827"
               r="10.71"
               transform="rotate(90)" />
          </g>
          <circle
             style="opacity:0.99823531;fill:#000098;fill-opacity:1;stroke:none;stroke-width:0.42082727;stroke-miterlimit:4;stroke-dasharray:none;stroke-opacity:1"
             id="circle893"
             cx="85.705002"
             cy="-66.290001"
             r="10.71"
             transform="rotate(90)" />
        </g>
      </g>
      <flowRoot
         transform="matrix(0.88238046,0,0,0.88238046,-283.36005,52.949271)"
         style="font-style:normal;font-variant:normal;font-weight:normal;font-stretch:normal;font-size:40px;line-height:1.25;font-family:'Uni Sans';-inkscape-font-specification:'Uni Sans';letter-spacing:0px;word-spacing:0px;fill:#ffffff;fill-opacity:1;stroke:none"
         id="flowRoot927"
         xml:space="preserve"><flowRegion
           style="fill:#ffffff"
           id="flowRegion929"><rect
             style="fill:#ffffff"
             y="55.6506"
             x="411.75745"
             height="295.99179"
             width="1102.4049"
             id="rect931" /></flowRegion><flowPara
           style="font-style:normal;font-variant:normal;font-weight:900;font-stretch:normal;font-family:'Uni Sans';-inkscape-font-specification:'Uni Sans Heavy';fill:#ffffff"
           id="flowPara933">Sheshank</flowPara></flowRoot>      <text
         id="text941"
         y="163.37473"
         x="91.489906"
         style="font-style:italic;font-variant:normal;font-weight:normal;font-stretch:normal;font-size:35.91140366px;line-height:1.25;font-family:'Uni Sans';-inkscape-font-specification:'Uni Sans weight=250 Italic';letter-spacing:0px;word-spacing:0px;fill:#ffffff;fill-opacity:1;stroke:none;stroke-width:0.89778513"
         xml:space="preserve"><tspan
           style="font-style:italic;font-variant:normal;font-stretch:normal;font-family:'Uni Sans';-inkscape-font-specification:'Uni Sans weight=250 Italic';fill:#ffffff;stroke-width:0.89778513"
           y="163.37473"
           x="91.489906"
           id="tspan939"
           sodipodi:role="line">Shankar</tspan></text>
    </g>
  </g>
</svg>
